<?xml version="1.0" encoding="utf-8"?>
<!-- Generator: Adobe Illustrator 19.1.0, SVG Export Plug-In . SVG Version: 6.00 Build 0)  -->
<svg version="1.1" id="Layer_1" xmlns="http://www.w3.org/2000/svg" xmlns:xlink="http://www.w3.org/1999/xlink" x="0px" y="0px"
	 viewBox="0 0 76.1 67.9" style="enable-background:new 0 0 76.1 67.9;" xml:space="preserve">
<style type="text/css">
	.st0{fill:#EC2227;}
	.st1{fill:#FFFFFF;}
</style>
<path class="st0" d="M75.1,56.7L44.5,3.7C43.2,1.4,40.7,0,38,0c-2.7,0-5.1,1.4-6.5,3.7L1,56.7c-1.4,2.3-1.4,5.1,0,7.5
	c1.4,2.3,3.8,3.7,6.5,3.7h61.1c2.7,0,5.1-1.4,6.5-3.7C76.4,61.8,76.4,59,75.1,56.7z"/>
<g>
	<path class="st1" d="M35.2,39.5l-0.9-13c-0.2-2.5-0.2-4.4-0.2-5.5c0-1.5,0.4-2.7,1.2-3.5c0.8-0.8,1.8-1.3,3.1-1.3
		c1.6,0,2.6,0.5,3.1,1.6c0.5,1.1,0.8,2.6,0.8,4.7c0,1.2-0.1,2.4-0.2,3.6L41,39.5c-0.1,1.6-0.4,2.8-0.8,3.7c-0.4,0.9-1.1,1.3-2.1,1.3
		c-1,0-1.7-0.4-2-1.2C35.7,42.4,35.4,41.1,35.2,39.5z M38.3,57.4c-1.1,0-2.1-0.4-2.9-1.1c-0.8-0.7-1.2-1.7-1.2-3
		c0-1.1,0.4-2.1,1.2-2.9c0.8-0.8,1.8-1.2,2.9-1.2c1.1,0,2.1,0.4,2.9,1.2c0.8,0.8,1.2,1.7,1.2,2.9c0,1.3-0.4,2.3-1.2,3
		C40.3,57,39.3,57.4,38.3,57.4z"/>
</g>
</svg>
