<?xml version="1.0" encoding="utf-8"?>
<!-- Generator: Adobe Illustrator 19.1.0, SVG Export Plug-In . SVG Version: 6.00 Build 0)  -->
<svg version="1.1" id="Layer_1" xmlns="http://www.w3.org/2000/svg" xmlns:xlink="http://www.w3.org/1999/xlink" x="0px" y="0px"
	 viewBox="0 0 67.9 67.9" style="enable-background:new 0 0 67.9 67.9;" xml:space="preserve">
<style type="text/css">
	.st0{fill:#25B34B;}
	.st1{fill:#FFFFFF;}
</style>
<g>
	<g>
		<path class="st0" d="M33.9,0C15.2,0,0,15.2,0,33.9c0,18.7,15.2,33.9,33.9,33.9c18.7,0,33.9-15.2,33.9-33.9
			C67.9,15.2,52.7,0,33.9,0L33.9,0z M49.6,24.5"/>
	</g>
	<path class="st1" d="M51.1,21.8L32.9,49.7h0l-0.3,0.4L32,50.6l-0.1,0.1l-1,0.4l-0.3,0.1h-0.8l-0.6-0.1l-0.5-0.2l-0.5-0.2L28,50.4
		l-0.1-0.1l-10.6-9.8c-1.4-1.2-1.4-3.4-0.2-4.7c1.2-1.3,3.3-1.4,4.7-0.2l7.7,7.1l16.1-24.6c1-1.5,3.1-2,4.6-1
		C51.7,18.2,52.1,20.3,51.1,21.8L51.1,21.8z"/>
</g>
</svg>
